 <svg  version="1.0" xmlns="http://www.w3.org/2000/svg"  width="300.000000pt" height="300.000000pt" viewBox="0 0 300.000000 300.000000"  preserveAspectRatio="xMidYMid meet">  <g transform="translate(0.000000,300.000000) scale(0.100000,-0.100000)" fill="#eeeeee" stroke="none"> <path d="M2422 2989 c-75 -14 -135 -57 -263 -185 l-124 -124 323 -322 322 -323 125 125 c161 161 189 210 190 330 0 122 -18 156 -168 308 -138 140 -173 166 -254 187 -63 16 -86 17 -151 4z"/> <path d="M1016 1661 l-828 -828 -94 -384 c-54 -219 -92 -394 -89 -407 13 -53 27 -51 442 52 l388 96 830 830 830 830 -320 320 c-176 176 -322 320 -325 320 -3 0 -378 -373 -834 -829z"/> </g> </svg> 