 <svg  version="1.0" xmlns="http://www.w3.org/2000/svg"  width="300.000000pt" height="300.000000pt" viewBox="0 0 300.000000 300.000000"  preserveAspectRatio="xMidYMid meet">  <g transform="translate(0.000000,300.000000) scale(0.100000,-0.100000)" fill="#ffffff" stroke="none"> <path d="M1274 2428 c-46 -27 -863 -813 -878 -845 -20 -43 -21 -123 0 -166 17 -34 837 -822 881 -845 43 -24 104 4 124 57 13 32 -6 85 -38 111 -14 11 -107 98 -207 193 -99 95 -250 238 -334 317 -83 79 -152 148 -152 152 0 4 428 8 950 8 l951 0 24 25 c19 18 25 35 25 65 0 30 -6 47 -25 65 l-24 25 -951 0 c-524 0 -950 4 -948 9 2 4 163 160 358 346 195 186 361 351 368 367 7 15 10 39 6 52 -13 54 -87 89 -130 64z"/> </g> </svg> 