 <svg  version="1.0" xmlns="http://www.w3.org/2000/svg"  width="900.000000pt" height="900.000000pt" viewBox="0 0 900.000000 900.000000"  preserveAspectRatio="xMidYMid meet">  <g transform="translate(0.000000,900.000000) scale(0.100000,-0.100000)" fill="#ffffff" stroke="none"> <path d="M650 7643 c-19 -2 -64 -13 -99 -24 -207 -63 -380 -212 -478 -409 -80 -163 -73 84 -73 -2720 0 -2804 -7 -2557 73 -2720 47 -95 118 -187 197 -254 52 -45 163 -116 180 -116 5 0 21 -7 37 -15 15 -8 55 -22 88 -32 57 -17 242 -18 3920 -18 l3860 0 73 23 c39 13 75 28 78 33 3 5 11 9 19 9 21 0 126 65 184 115 117 100 228 275 252 397 7 37 17 58 25 58 21 0 21 5035 0 5043 -8 3 -19 30 -26 60 -14 71 -89 216 -148 286 -106 128 -220 206 -383 263 l-64 23 -3840 1 c-2112 0 -3856 -1 -3875 -3z m7405 -523 c4 -6 -548 -567 -1227 -1246 -678 -679 -1438 -1441 -1688 -1693 -250 -252 -468 -467 -485 -478 -95 -61 -237 -61 -330 1 -16 11 -189 180 -383 375 -195 196 -954 958 -1689 1693 -734 736 -1332 1342 -1328 1348 9 14 7121 14 7130 0z m-6399 -1495 c610 -614 1110 -1124 1112 -1133 3 -23 -2220 -2258 -2236 -2248 -9 5 -12 568 -12 2245 0 1231 3 2241 7 2244 3 4 9 7 13 7 3 0 505 -502 1116 -1115z m6802 -1130 c1 -1521 -1 -2242 -8 -2249 -14 -14 -2241 2222 -2238 2246 4 22 2219 2249 2233 2245 7 -3 11 -750 13 -2242z m-4876 -802 c463 -461 486 -479 698 -539 92 -27 328 -27 420 0 212 60 235 78 698 539 221 221 410 403 420 405 21 3 2247 -2222 2237 -2237 -9 -15 -7121 -15 -7130 -1 -10 16 2216 2241 2237 2238 10 -2 199 -184 420 -405z"/> </g> </svg> 