 <svg  version="1.0" xmlns="http://www.w3.org/2000/svg"  width="900.000000pt" height="900.000000pt" viewBox="0 0 900.000000 900.000000"  preserveAspectRatio="xMidYMid meet">  <g transform="translate(0.000000,900.000000) scale(0.100000,-0.100000)" fill="#ffffff" stroke="none"> <path d="M2530 8985 c0 -14 -8 -17 -70 -28 -107 -20 -302 -133 -403 -234 -16 -15 -51 -56 -77 -90 -42 -54 -61 -87 -118 -200 -17 -33 -34 -88 -42 -133 -5 -25 -13 -63 -19 -85 -7 -28 -11 -1162 -11 -3725 0 -2563 4 -3697 11 -3725 6 -22 14 -60 19 -85 8 -45 25 -100 42 -133 57 -113 76 -146 118 -200 96 -124 193 -200 360 -282 36 -18 88 -35 140 -48 63 -15 3957 -15 4020 0 52 13 104 30 140 48 167 82 264 158 360 282 42 54 61 87 118 200 17 33 34 88 42 133 5 25 13 63 19 85 15 56 15 7396 0 7445 -5 19 -14 58 -19 85 -8 49 -24 103 -42 138 -57 113 -76 146 -118 200 -26 34 -61 75 -77 90 -101 101 -296 214 -403 234 -62 11 -70 14 -70 28 0 13 -236 15 -1960 15 -1724 0 -1960 -2 -1960 -15z m3890 -464 c91 -32 122 -52 186 -115 63 -64 83 -95 115 -186 19 -53 19 -121 19 -3730 0 -3609 0 -3677 -19 -3730 -32 -91 -52 -122 -115 -186 -64 -63 -95 -83 -186 -115 -53 -19 -101 -19 -1930 -19 -1826 0 -1877 1 -1930 19 -158 56 -245 143 -301 301 -19 53 -19 128 -19 3730 0 3609 0 3677 19 3730 32 91 52 122 115 186 58 57 98 82 191 118 35 13 257 15 1920 15 1835 1 1882 1 1935 -18z"/> <path d="M3585 8221 c-81 -36 -145 -127 -145 -206 0 -110 115 -225 225 -225 78 0 160 57 204 140 53 102 -2 231 -123 289 -55 25 -107 26 -161 2z"/> <path d="M4333 8219 c-83 -38 -143 -123 -143 -204 0 -82 60 -166 147 -205 44 -19 65 -20 532 -20 449 0 489 2 526 19 81 37 145 127 145 206 0 81 -64 170 -148 206 -41 18 -75 19 -530 18 -458 -1 -489 -2 -529 -20z"/> <path d="M4385 1625 c-22 -8 -46 -15 -53 -15 -30 0 -150 -91 -188 -142 -58 -78 -74 -105 -74 -126 0 -11 -7 -36 -15 -55 -26 -63 -12 -211 26 -277 5 -8 16 -30 25 -48 58 -115 243 -222 384 -222 146 0 320 104 388 231 58 108 78 242 47 316 -8 19 -15 44 -15 55 0 21 -16 48 -74 126 -38 51 -158 142 -188 142 -7 0 -31 7 -53 15 -22 8 -69 14 -105 14 -36 0 -83 -6 -105 -14z"/> </g> </svg> 