 <svg  version="1.0" xmlns="http://www.w3.org/2000/svg"  width="300.000000pt" height="300.000000pt" viewBox="0 0 300.000000 300.000000"  preserveAspectRatio="xMidYMid meet">  <g transform="translate(0.000000,300.000000) scale(0.100000,-0.100000)" fill="#ffffff" stroke="none"> <path d="M1285 2981 c-50 -22 -91 -70 -104 -119 -5 -20 -15 -86 -22 -145 -6 -59 -17 -111 -23 -115 -6 -3 -46 -21 -89 -39 l-78 -32 -95 75 c-121 94 -141 104 -207 104 -71 0 -114 -29 -243 -161 -116 -119 -134 -148 -134 -219 0 -63 9 -80 103 -203 l75 -98 -32 -77 c-17 -42 -35 -82 -38 -88 -4 -6 -56 -17 -115 -23 -140 -16 -175 -26 -214 -58 -60 -51 -69 -87 -69 -283 0 -196 9 -232 69 -283 38 -32 73 -41 211 -58 58 -6 109 -15 114 -19 4 -5 23 -45 42 -90 l33 -82 -68 -86 c-99 -126 -111 -148 -111 -210 0 -29 7 -67 16 -85 22 -43 208 -233 263 -268 35 -23 57 -29 98 -29 66 0 90 12 209 105 l94 73 77 -32 c43 -17 83 -35 89 -38 6 -4 17 -56 23 -115 16 -140 26 -175 58 -214 51 -60 87 -69 283 -69 196 0 232 9 283 69 32 38 41 73 58 211 6 58 15 109 19 114 5 4 45 23 90 42 l82 33 86 -68 c127 -100 148 -111 213 -111 73 0 115 27 245 161 116 119 134 148 134 219 0 63 -13 88 -105 206 l-73 94 33 81 c18 44 37 84 41 89 5 4 56 13 114 19 138 17 173 26 211 58 60 51 69 87 69 283 0 196 -9 232 -69 283 -38 32 -73 41 -211 58 -58 6 -109 15 -114 19 -4 5 -23 45 -41 90 l-34 81 75 95 c94 121 104 141 104 207 0 71 -29 114 -161 243 -119 116 -148 134 -219 134 -63 0 -84 -11 -204 -104 l-95 -75 -78 32 c-43 18 -83 36 -89 39 -6 4 -17 56 -23 115 -16 140 -26 175 -58 214 -51 60 -87 69 -283 69 -148 0 -181 -3 -215 -19z m398 -129 c11 -12 23 -68 37 -172 12 -92 26 -160 34 -168 7 -8 42 -24 77 -36 35 -13 95 -37 133 -55 82 -39 76 -41 207 61 129 102 145 111 172 104 33 -8 247 -228 247 -254 0 -11 -15 -40 -33 -64 -18 -24 -63 -83 -100 -131 -37 -48 -67 -92 -67 -98 0 -5 15 -42 34 -82 19 -40 43 -98 54 -130 11 -33 26 -65 33 -73 9 -8 75 -22 169 -34 104 -14 160 -26 172 -37 16 -14 18 -36 18 -183 0 -147 -2 -169 -18 -183 -12 -11 -68 -23 -172 -37 -174 -23 -178 -25 -204 -108 -9 -29 -33 -88 -52 -129 -28 -59 -34 -81 -26 -97 5 -12 43 -64 84 -117 102 -129 111 -145 104 -172 -8 -33 -228 -247 -254 -247 -11 0 -40 15 -64 33 -24 18 -83 63 -131 100 -48 37 -92 67 -98 67 -5 0 -40 -14 -77 -32 -37 -17 -96 -41 -131 -54 -35 -12 -70 -28 -77 -36 -8 -8 -22 -76 -34 -168 -14 -104 -26 -160 -37 -172 -14 -16 -36 -18 -183 -18 -147 0 -169 2 -183 18 -11 12 -23 68 -37 172 -23 174 -25 178 -108 204 -29 9 -87 32 -127 51 -41 19 -79 35 -84 35 -6 0 -50 -30 -98 -67 -48 -37 -107 -82 -131 -100 -24 -18 -53 -33 -64 -33 -26 0 -246 214 -254 247 -7 27 2 43 104 172 41 53 79 105 84 117 8 16 2 37 -25 95 -20 41 -44 100 -55 132 -11 33 -26 65 -34 73 -8 8 -74 22 -168 35 -103 13 -161 26 -172 36 -16 14 -18 37 -18 183 0 146 2 169 18 183 11 10 69 23 172 36 175 24 178 25 205 111 9 30 33 88 52 129 27 58 33 79 25 95 -5 12 -43 64 -84 117 -102 129 -111 145 -104 172 8 33 228 247 254 247 11 0 40 -15 64 -33 24 -18 83 -63 131 -100 48 -37 92 -67 98 -67 5 0 42 15 82 34 40 19 97 42 127 51 86 27 87 30 110 205 14 104 26 160 37 172 14 16 36 18 183 18 147 0 169 -2 183 -18z"/> <path d="M1341 2105 c-193 -54 -348 -193 -423 -380 -32 -77 -33 -85 -33 -225 0 -140 1 -148 32 -225 18 -44 56 -111 85 -150 66 -88 169 -165 273 -208 77 -31 85 -32 225 -32 140 0 148 1 225 32 161 65 293 197 358 358 31 77 32 85 32 225 0 140 -1 148 -32 225 -66 161 -198 294 -358 357 -72 28 -93 32 -205 35 -89 2 -140 -1 -179 -12z m261 -116 c226 -47 398 -259 398 -489 0 -270 -230 -500 -500 -500 -270 0 -500 230 -500 500 0 225 164 433 383 486 66 16 152 17 219 3z"/> </g> </svg> 