<?xml version="1.0" standalone="no"?>
<!DOCTYPE svg PUBLIC "-//W3C//DTD SVG 20010904//EN"
 "http://www.w3.org/TR/2001/REC-SVG-20010904/DTD/svg10.dtd">
<svg version="1.0" xmlns="http://www.w3.org/2000/svg"
 width="300.000000pt" height="300.000000pt" viewBox="0 0 300.000000 300.000000"
 preserveAspectRatio="xMidYMid meet">
<metadata>
Created by potrace 1.10, written by Peter Selinger 2001-2011
</metadata>
<g transform="translate(0.000000,300.000000) scale(0.100000,-0.100000)"
fill="#ffffff" stroke="none">
<path d="M1390 2354 c-247 -53 -429 -277 -430 -530 0 -71 34 -196 72 -263 92
-162 280 -271 468 -271 188 0 376 109 468 271 38 67 72 192 72 263 -1 255
-184 478 -435 531 -85 18 -130 18 -215 -1z m245 -151 c178 -62 293 -264 255
-448 -26 -130 -106 -230 -228 -288 -61 -29 -76 -32 -162 -32 -86 0 -101 3
-162 32 -126 59 -204 161 -229 296 -38 207 110 421 318 457 58 10 153 3 208
-17z"/>
<path d="M1313 1085 c-219 -40 -453 -168 -598 -328 -71 -77 -155 -202 -155
-228 0 -32 17 -56 47 -67 44 -15 67 1 119 80 326 491 1013 561 1430 144 39
-39 94 -106 123 -148 50 -75 53 -78 91 -78 29 0 43 6 54 22 25 36 19 62 -33
140 -164 244 -422 413 -710 463 -101 18 -270 18 -368 0z"/>
</g>
</svg>
