 <svg  version="1.0" xmlns="http://www.w3.org/2000/svg"  width="300.000000pt" height="443.000000pt" viewBox="0 0 300.000000 443.000000"  preserveAspectRatio="xMidYMid meet">  <g transform="translate(0.000000,443.000000) scale(0.100000,-0.100000)" fill="#ffffff" stroke="none"> <path d="M1275 3488 c-34 -9 -119 -90 -613 -582 -381 -380 -579 -585 -592 -612 -24 -48 -25 -101 -5 -152 11 -26 191 -212 583 -605 312 -312 581 -576 597 -586 62 -38 145 -33 208 11 59 42 85 148 53 221 -8 18 -229 246 -510 527 -273 272 -496 499 -496 505 0 6 221 231 491 500 278 278 497 504 505 522 61 141 -70 291 -221 251z"/> </g> </svg> 