<?xml version="1.0" standalone="no"?>
<!DOCTYPE svg PUBLIC "-//W3C//DTD SVG 20010904//EN"
 "http://www.w3.org/TR/2001/REC-SVG-20010904/DTD/svg10.dtd">
<svg version="1.0" xmlns="http://www.w3.org/2000/svg"
 width="300.000000pt" height="300.000000pt" viewBox="0 0 300.000000 300.000000"
 preserveAspectRatio="xMidYMid meet">
<metadata>
Created by potrace 1.10, written by Peter Selinger 2001-2011
</metadata>
<g transform="translate(0.000000,300.000000) scale(0.100000,-0.100000)"
fill="#ffffff" stroke="none">
<path d="M1310 2856 c-292 -65 -521 -244 -650 -510 -90 -183 -93 -205 -97
-709 l-5 -438 -111 -167 c-72 -108 -115 -185 -124 -217 -30 -110 25 -232 131
-288 39 -21 56 -22 356 -27 l315 -5 6 -53 c14 -111 100 -226 209 -280 49 -24
66 -27 160 -27 94 0 111 3 160 27 109 54 195 169 209 280 l6 53 315 5 c299 5
317 6 356 27 81 43 145 146 144 232 -1 55 -39 132 -140 281 l-105 155 -6 440
c-6 408 -8 446 -28 524 -92 356 -367 620 -724 696 -83 18 -299 18 -377 1z
m395 -132 c274 -74 482 -276 576 -559 23 -68 23 -82 29 -535 l5 -465 122 -185
c106 -159 123 -191 123 -225 0 -45 -26 -92 -62 -111 -34 -19 -1962 -19 -1996
0 -36 19 -62 66 -62 111 0 34 18 66 125 228 l124 188 3 462 c3 453 4 463 27
532 105 315 350 528 666 579 57 9 260 -3 320 -20z m45 -2242 c0 -44 -35 -118
-75 -157 -90 -90 -229 -98 -332 -19 -42 32 -80 97 -89 152 l-7 42 252 0 c236
0 251 -1 251 -18z"/>
</g>
</svg>
