 <svg  version="1.0" xmlns="http://www.w3.org/2000/svg"  width="300.000000pt" height="300.000000pt" viewBox="0 0 300.000000 300.000000"  preserveAspectRatio="xMidYMid meet">  <g transform="translate(0.000000,300.000000) scale(0.100000,-0.100000)" fill="#003087" stroke="none"> <path d="M1358 2747 c-76 -26 -84 -32 -618 -455 -380 -300 -421 -339 -463 -442 -22 -54 -22 -61 -25 -630 -2 -372 1 -591 8 -623 34 -160 171 -300 331 -336 60 -14 1758 -14 1818 0 160 37 297 175 331 336 7 32 10 251 8 623 l-3 575 -23 56 c-45 106 -81 140 -512 482 -228 181 -437 344 -465 363 -107 74 -259 94 -387 51z m266 -126 c50 -22 852 -652 917 -721 81 -85 79 -67 79 -710 0 -655 3 -628 -89 -721 -96 -96 -25 -90 -1047 -87 l-889 3 -49 25 c-27 14 -68 46 -91 72 -77 85 -75 70 -75 708 0 643 -2 625 79 710 59 64 865 698 911 718 81 35 176 36 254 3z"/> <path d="M1146 794 c-20 -20 -20 -68 0 -88 13 -14 60 -16 354 -16 372 0 370 0 370 60 0 60 2 60 -370 60 -294 0 -341 -2 -354 -16z"/> </g> </svg> 