 <svg  version="1.0" xmlns="http://www.w3.org/2000/svg"  width="300.000000pt" height="300.000000pt" viewBox="0 0 300.000000 300.000000"  preserveAspectRatio="xMidYMid meet">  <g transform="translate(0.000000,300.000000) scale(0.100000,-0.100000)" fill="#ffffff" stroke="none"> <path d="M386 2274 c-21 -21 -20 -57 2 -77 17 -16 109 -17 1114 -17 1048 0 1096 1 1111 18 21 23 22 56 1 76 -14 14 -129 16 -1114 16 -985 0 -1100 -2 -1114 -16z"/> <path d="M392 1544 c-14 -10 -22 -26 -22 -44 0 -64 -66 -60 1130 -60 1196 0 1130 -4 1130 60 0 64 66 60 -1130 60 -966 0 -1088 -2 -1108 -16z"/> <path d="M387 802 c-21 -23 -22 -56 -1 -76 14 -14 129 -16 1114 -16 985 0 1100 2 1114 16 21 21 20 57 -2 77 -17 16 -109 17 -1114 17 -1048 0 -1096 -1 -1111 -18z"/> </g> </svg> 