<?xml version="1.0" standalone="no"?>
<!DOCTYPE svg PUBLIC "-//W3C//DTD SVG 20010904//EN"
 "http://www.w3.org/TR/2001/REC-SVG-20010904/DTD/svg10.dtd">
<svg version="1.0" xmlns="http://www.w3.org/2000/svg"
 width="300.000000pt" height="300.000000pt" viewBox="0 0 300.000000 300.000000"
 preserveAspectRatio="xMidYMid meet">
<metadata>
Created by potrace 1.10, written by Peter Selinger 2001-2011
</metadata>
<g transform="translate(0.000000,300.000000) scale(0.100000,-0.100000)"
fill="#003087" stroke="none">
<path d="M615 2899 c-261 -40 -466 -242 -511 -503 -51 -292 122 -579 406 -676
89 -31 242 -38 330 -16 224 56 399 229 455 451 19 75 19 202 0 283 -71 303
-374 508 -680 461z m238 -209 c113 -43 209 -142 248 -259 32 -95 25 -222 -18
-313 -41 -88 -113 -160 -201 -201 -91 -43 -218 -50 -313 -18 -298 100 -384
483 -157 697 94 89 192 126 313 120 39 -2 96 -14 128 -26z"/>
<path d="M2209 2900 c-226 -35 -416 -194 -489 -410 -31 -89 -38 -242 -16 -330
56 -224 229 -399 451 -455 75 -19 202 -19 283 0 221 52 399 231 453 455 17 75
15 211 -5 289 -76 295 -379 496 -677 451z m173 -191 c164 -35 293 -167 328
-334 41 -200 -81 -409 -279 -476 -95 -32 -222 -25 -313 18 -88 41 -160 113
-201 201 -30 63 -32 73 -32 182 0 106 2 120 28 172 89 181 279 277 469 237z"/>
<path d="M557 1294 c-217 -52 -394 -233 -448 -454 -17 -75 -15 -211 5 -289 54
-207 230 -383 437 -437 78 -20 214 -22 289 -5 224 54 403 232 455 453 76 323
-125 650 -450 733 -73 18 -210 18 -288 -1z m325 -211 c88 -41 160 -113 201
-201 43 -91 50 -218 18 -313 -81 -241 -359 -356 -585 -242 -70 35 -153 118
-187 185 -115 228 -7 500 234 589 41 15 73 19 152 16 88 -2 108 -6 167 -34z"/>
<path d="M2150 1294 c-216 -57 -390 -232 -445 -449 -19 -75 -19 -202 0 -283
52 -221 231 -399 455 -453 75 -17 211 -15 289 5 207 54 383 230 437 437 20 78
22 214 5 289 -54 224 -232 403 -453 455 -79 18 -216 18 -288 -1z m286 -194
c193 -67 315 -277 274 -475 -34 -167 -169 -301 -335 -335 -201 -41 -409 81
-476 279 -32 95 -25 222 18 313 51 108 142 187 258 224 64 20 192 17 261 -6z"/>
</g>
</svg>
