<?xml version="1.0" standalone="no"?>
<!DOCTYPE svg PUBLIC "-//W3C//DTD SVG 20010904//EN"
 "http://www.w3.org/TR/2001/REC-SVG-20010904/DTD/svg10.dtd">
<svg version="1.0" xmlns="http://www.w3.org/2000/svg"
 width="300.000000pt" height="300.000000pt" viewBox="0 0 300.000000 300.000000"
 preserveAspectRatio="xMidYMid meet">
<metadata>
Created by potrace 1.10, written by Peter Selinger 2001-2011
</metadata>
<g transform="translate(0.000000,300.000000) scale(0.100000,-0.100000)"
fill="#ffffff" stroke="none">
<path d="M1393 2796 c-100 -33 -182 -102 -230 -196 -25 -50 -28 -65 -28 -160
0 -93 3 -112 27 -162 35 -76 104 -142 186 -181 59 -27 78 -31 152 -31 74 0 93
4 152 31 82 39 151 105 186 181 24 50 27 69 27 162 0 96 -3 110 -29 163 -37
71 -109 140 -184 175 -69 31 -192 40 -259 18z m197 -196 c46 -24 75 -62 91
-121 38 -145 -118 -273 -256 -210 -110 50 -145 183 -74 283 47 65 160 88 239
48z"/>
<path d="M1367 1851 c-98 -39 -181 -124 -219 -223 -16 -42 -19 -71 -16 -143 4
-109 32 -175 105 -248 26 -26 72 -60 103 -75 49 -24 66 -27 160 -27 94 0 111
3 160 27 71 35 143 107 178 178 24 49 27 66 27 160 0 94 -3 111 -27 160 -15
31 -49 77 -75 103 -75 75 -139 101 -253 104 -75 2 -105 -1 -143 -16z m188
-172 c53 -15 110 -73 125 -128 49 -185 -177 -317 -311 -182 -98 98 -62 260 68
306 47 17 67 18 118 4z"/>
<path d="M1424 930 c-108 -23 -215 -108 -262 -208 -24 -50 -27 -69 -27 -162 0
-96 3 -110 29 -163 36 -71 108 -140 184 -175 49 -23 70 -27 152 -27 82 0 103
4 152 27 76 35 148 104 184 175 26 53 29 67 29 163 0 93 -3 112 -27 162 -70
150 -254 242 -414 208z m151 -199 c83 -37 128 -127 106 -210 -24 -91 -88 -141
-181 -141 -93 0 -157 50 -181 141 -29 110 65 229 181 229 19 0 53 -9 75 -19z"/>
</g>
</svg>
