<?xml version="1.0" standalone="no"?>
<!DOCTYPE svg PUBLIC "-//W3C//DTD SVG 20010904//EN"
 "http://www.w3.org/TR/2001/REC-SVG-20010904/DTD/svg10.dtd">
<svg version="1.0" xmlns="http://www.w3.org/2000/svg"
 width="300.000000pt" height="300.000000pt" viewBox="0 0 300.000000 300.000000"
 preserveAspectRatio="xMidYMid meet">
<metadata>
Created by potrace 1.10, written by Peter Selinger 2001-2011
</metadata>
<g transform="translate(0.000000,300.000000) scale(0.100000,-0.100000)"
fill="#003087" stroke="none">
<path d="M1420 2991 c-68 -22 -124 -72 -505 -451 l-410 -408 -130 -4 c-110 -3
-137 -7 -176 -27 -75 -36 -125 -86 -161 -159 l-33 -67 0 -810 0 -810 27 -56
c35 -70 97 -132 168 -167 l55 -27 442 -3 c434 -3 443 -2 463 18 26 26 26 52
-1 76 -20 18 -46 19 -458 24 l-437 5 -42 28 c-23 15 -54 46 -69 69 l-28 42 -3
780 c-2 544 0 792 8 819 14 48 61 102 114 130 l41 22 1065 3 c727 2 1081 -1
1115 -8 68 -15 118 -50 152 -107 l28 -48 3 -237 3 -237 -263 -3 c-263 -3 -263
-3 -313 -30 -187 -99 -232 -335 -94 -491 22 -26 65 -58 97 -74 l57 -28 258 -3
257 -3 0 -218 c0 -232 -6 -269 -51 -331 -13 -16 -45 -41 -73 -55 l-50 -25
-421 0 c-463 0 -465 0 -465 -59 0 -62 -6 -61 455 -61 470 0 493 3 581 69 54
40 107 112 125 169 7 22 14 133 16 274 l5 238 39 0 c44 0 103 21 132 48 11 9
28 34 38 54 17 32 19 60 19 212 0 186 -5 214 -48 259 -39 42 -75 57 -130 57
l-50 0 -4 243 c-4 240 -4 242 -32 303 -36 79 -106 148 -180 178 l-58 24 -140
243 c-77 134 -152 257 -166 272 -15 15 -53 41 -87 58 -54 27 -68 30 -138 27
l-77 -2 -113 111 c-62 61 -132 121 -157 134 -48 24 -156 35 -200 20z m171
-140 c61 -40 196 -178 184 -190 -6 -5 -214 -126 -463 -270 l-453 -261 -90 0
c-49 0 -89 2 -89 4 0 10 698 702 729 723 50 34 123 32 182 -6z m469 -256 c14
-7 35 -24 47 -37 17 -18 191 -310 244 -410 9 -17 -11 -18 -618 -18 -534 1
-625 3 -610 14 49 37 794 460 821 466 36 8 81 2 116 -15z m790 -1338 l25 -13
3 -171 c2 -146 0 -173 -13 -187 -14 -14 -59 -16 -356 -16 -374 0 -379 1 -436
61 -40 43 -53 77 -53 140 0 96 57 166 155 190 17 4 170 7 340 8 231 0 316 -2
335 -12z"/>
<path d="M2162 1108 c-17 -17 -15 -64 4 -82 20 -20 58 -20 78 0 19 18 21 65 4
82 -16 16 -70 16 -86 0z"/>
<path d="M1358 109 c-54 -31 -34 -108 28 -109 48 0 70 64 34 100 -22 22 -37
24 -62 9z"/>
</g>
</svg>
